<svg xmlns="http://www.w3.org/2000/svg" xmlns:xlink="http://www.w3.org/1999/xlink" width="715.64" height="440.586" viewBox="0 0 715.64 440.586"><defs><style>.a,.b{fill:#5f9759;}.a,.i,.r,.w{opacity:0.1;}.c{fill:#444053;}.d,.e{fill:none;stroke:#444053;stroke-miterlimit:10;}.e{stroke-width:0.75px;}.f,.i{fill:#33323d;}.g{fill:#fff;}.h{fill:#504f60;}.j{fill:#8ccf4d;}.j,.k{opacity:0.8;}.k{fill:#fa5959;}.l{fill:#fbbebe;}.m{opacity:0.05;}.n{fill:#3f3d56;}.o{fill:#464353;}.p{fill:url(#a);}.q{fill:#65617d;}.s{fill:#ee8e9e;}.t{fill:#e3e8f4;}.u{fill:#e6e8ec;}.v{fill:#565387;}.x{fill:#a1616a;}.y{fill:#514e7f;}.z{fill:url(#b);}</style><linearGradient id="a" x1="0.5" y1="1" x2="0.5" gradientUnits="objectBoundingBox"><stop offset="0" stop-color="gray" stop-opacity="0.251"/><stop offset="0.54" stop-color="gray" stop-opacity="0.122"/><stop offset="1" stop-color="gray" stop-opacity="0.102"/></linearGradient><linearGradient id="b" x1="0.001" y1="0.5" x2="1" y2="0.5" xlink:href="#a"/></defs><g transform="translate(0.02 -0.02)"><path class="a" d="M726.71,370.144a146.647,146.647,0,0,1-4.3,35.386q-1.446,5.845-3.36,11.459a136.508,136.508,0,0,1-5.42,13.561q-1.55,3.348-3.275,6.574a88.456,88.456,0,0,1-7.394,35.538A91.66,91.66,0,0,1,658.5,518.474a93.568,93.568,0,0,1-39.742,9.114H146.933a118.887,118.887,0,0,1-59.8-15.979q-4.028-2.333-7.85-4.97a118.728,118.728,0,0,1-15.536-12.808,115.609,115.609,0,0,1-17.079-21.186A112.926,112.926,0,0,1,29.3,412.353,142.181,142.181,0,0,1,11.07,341.946c0-32.81,10.669-62.739,28.2-85.4a120.052,120.052,0,0,1,11.976-13.324,111.441,111.441,0,0,1,13.7-11.21,105.688,105.688,0,0,1,12.152-7.291c1.756-.9,3.518-1.738,5.31-2.521,1.574-.7,3.166-1.349,4.776-1.963q2.9-1.106,5.869-2.023t5.863-1.616q4.253-1.039,8.652-1.689c2.43-.358,4.861-.608,7.291-.8q2.9-.207,5.845-.243h1.063c2.163,0,4.314.085,6.447.231.225-.45.468-.905.693-1.355.851-1.616,1.732-3.232,2.619-4.818v-.043c.152-.273.3-.547.462-.814.717-1.294,1.464-2.576,2.23-3.846.352-.608.7-1.179,1.057-1.756.079-.14.158-.273.249-.413q.547-.911,1.112-1.823,2.813-4.49,5.851-8.84c.176-.249.34-.492.516-.735.316-.45.608-.893.96-1.337.838-1.173,1.7-2.351,2.57-3.512.608-.82,1.215-1.641,1.871-2.43q2.37-3.062,4.861-6.076c1.659-2.005,3.409-4.022,5.177-6,.243-.273.486-.541.741-.814l2.594-2.825h0c.128-.134.237-.255.358-.377h0c.31-.334.608-.668.942-1,1.391-1.47,2.819-2.922,4.253-4.356a231.612,231.612,0,0,1,23.356-20.293c.322-.255.65-.5.972-.741,1.543-1.167,3.111-2.315,4.678-3.445a247.186,247.186,0,0,1,26.983-16.83c.644-.365,1.3-.711,1.962-1.057a258.988,258.988,0,0,1,25.816-11.884q7.206-2.85,14.667-5.322c3.293-1.075,6.6-2.1,9.946-3.038q7.765-2.23,15.724-4.022a281.528,281.528,0,0,1,47.538-6.477q7.291-.383,14.746-.383A282.531,282.531,0,0,1,424.8,96.432a2.564,2.564,0,0,0,2.205,1.148h2.041c.887.237,1.768.486,2.655.741q7.431,2.145,14.649,4.672l1.215.437a261.506,261.506,0,0,1,34.578,15.19A250.365,250.365,0,0,1,511.1,136.509q2.133,1.531,4.2,3.093,2.515-1.622,5.116-3.093a100.61,100.61,0,0,1,21.193-9.029,96.667,96.667,0,0,1,47.538-1.859c20.2,4.283,38.491,14.916,53.261,30.039A124.284,124.284,0,0,1,658.4,175.88c.334.523.668,1.051.99,1.586a133.68,133.68,0,0,1,10.171,20.287c.1.255.207.5.3.759a140.415,140.415,0,0,1,6.258,20.263c.073.346.158.7.231,1.051a145.9,145.9,0,0,1,2.989,20.275,3.839,3.839,0,0,0,.049.741q.383,5.292.389,10.7c0,3.22-.109,6.416-.31,9.582,0,.346-.049.711-.079,1.063-.055.924-.134,1.823-.213,2.752a115.261,115.261,0,0,1,12.99,12.249q2.655,2.9,5.14,6.021a127.7,127.7,0,0,1,13.245,20.275A142.729,142.729,0,0,1,726.71,370.144Z" transform="translate(-11.09 -87.42)"/><path class="a" d="M702.835,701.03c0,13.81-14.315,26.734-39.293,37.865H191.715c-21.831,0-42.276-7.9-59.8-21.673-4.4-5.225-6.726-10.639-6.726-16.2,0-14.679,16.186-28.38,44.172-39.961h0l.79-.316c7.9-3.238,16.727-6.295,26.375-9.169.243-.073.492-.14.735-.225h0q11.483-3.372,24.431-6.392c.273-.061.541-.128.814-.176,3.33-.79,6.726-1.525,10.2-2.26h0l1.337-.279A761.273,761.273,0,0,1,319.1,630.034h.036q6.538-.608,13.215-1.088c4.952-.395,9.964-.729,15.032-1.039,3.87-.249,7.789-.462,11.72-.656a.115.115,0,0,1,.091,0c17.735-.893,36.06-1.361,54.8-1.361a1009.489,1009.489,0,0,1,128.936,7.9.312.312,0,0,1,.109,0c5.966.778,11.824,1.6,17.535,2.473,1.634.255,3.263.51,4.861.772q9.667,1.562,18.835,3.3h0C656.148,654,702.835,676.107,702.835,701.03Z" transform="translate(-55.872 -298.715)"/><path class="b" d="M803.927,264.892s-6.428-2.607-26.88,6.769-23,8.19-28.3,6.781-8.245-1.774-13.92-9.606c0,0-4-21.7-7.9-25.063s-20.336,1.92-20.336,1.92-19.74,4.527-23.5-21.873c0,0,2.667-19.88-.966-25.98,0,0,7.34,3.159,19.443-1.944s21.794,5.5,21.794,5.5,3.038,7.9,2.734,12.614,1.616,6.483,7.388,4.2c0,0,2.837-4.034-1.179-10.706s-6.884-11.635-5.766-16.812,4.344-12.364,14.7-15.955,24.425-4.253,31.175-7.091S780.839,163,780.839,163s-4.156,4.162,5.632,21.812,3.548,25.306,3.548,25.306-5.207,12.413-28.2,11.4c0,0-22.153.808-10.074,10.2,0,0,7.735-1.574,19.3-5.25s19.911,11.5,21.983,22.049S803.927,264.892,803.927,264.892Z" transform="translate(-274.423 -117.071)"/><path class="c" d="M822.31,184.976l.122-.036c.887,3.366-9.011,16.9-17.474,27.663l-.1-.079C816.793,197.371,823,187.583,822.31,184.976Z" transform="translate(-322.584 -125.68)"/><path class="c" d="M789.561,230l.055.134c-6.762,8.591-15.263,18.835-22.068,26.448-.65.723-1.294,1.483-1.914,2.26l-.194-.158c.608-.778,1.27-1.543,1.92-2.266C774.159,248.835,782.793,238.6,789.561,230Z" transform="translate(-307.115 -143.363)"/><path class="c" d="M755.562,276.89l.134.231c-12.383,15.463-13.2,39.493-13.233,39.681l-2.613-3.038C739.88,313.57,743.095,292.462,755.562,276.89Z" transform="translate(-297.073 -161.763)"/><path class="d" d="M796.736,284.157s-14.582-7.595-25.98-4.861-37.032-9.661-37.032-9.661-10.876-4.417-13.063-9.454c0,0-7.467-7.9-7.9-11.976s-7.692-14.351-12.431-14.746" transform="translate(-281.565 -144.72)"/><path class="d" d="M851.23,322s-7.352-4.958-6.5-10.73" transform="translate(-338.204 -175.254)"/><path class="d" d="M829.454,327.327s-10.517-3.816-11.544-18.787" transform="translate(-327.705 -174.183)"/><path class="d" d="M804.226,331.046a23.532,23.532,0,0,1-6.714-22.906" transform="translate(-319.434 -174.026)"/><path class="d" d="M773.343,324.177s-6.683-14.035-.735-23.167" transform="translate(-308.96 -171.228)"/><path class="d" d="M855.225,301.67s-7.6,2.43-5.973,6.416" transform="translate(-339.914 -171.487)"/><path class="d" d="M837.4,279s-10.177,3.226-10.414,17.62" transform="translate(-331.268 -162.591)"/><path class="d" d="M815.2,273.48s-9.266,11.435-8.585,21.825" transform="translate(-323.259 -160.425)"/><path class="d" d="M788.82,280.86s-9.2,8.8-8.026,13.689" transform="translate(-313.099 -163.321)"/><path class="d" d="M778.587,274.918s-8.628,1.543-9.837-1.288" transform="translate(-308.413 -160.484)"/><path class="d" d="M766.49,258.61s4.356,5.772,5.468,4.478" transform="translate(-307.527 -154.589)"/><path class="d" d="M820.383,249.382s-21.752,1.58-26.673-4.982" transform="translate(-318.208 -149.013)"/><path class="d" d="M759,210.73s10.2,21.9,17.62,24.692" transform="translate(-304.587 -135.801)"/><path class="d" d="M776.58,193.56s6.264,20.148,14.029,26.436" transform="translate(-311.486 -129.063)"/><path class="e" d="M835.577,225.175s-16.539,7.1-26.467-.085" transform="translate(-324.251 -141.436)"/><path class="e" d="M800.82,186.49s3.779,14.807,8.871,18.386" transform="translate(-320.998 -126.289)"/><path class="e" d="M840.319,197.92s-9.3,3.524-12.759.826" transform="translate(-331.491 -130.774)"/><path class="d" d="M751.112,266.57s0,12.911-3.512,13.829" transform="translate(-300.114 -157.713)"/><path class="d" d="M706.09,290.219s13.975,1.215,20.4-6.009" transform="translate(-283.825 -164.635)"/><path class="d" d="M739.259,241.47s-3.378,13.093-12.7,16.624" transform="translate(-291.858 -147.864)"/><path class="d" d="M692.31,267.97s9.879,3.433,18.38-5.31" transform="translate(-278.417 -156.179)"/><path class="d" d="M724.865,222.94s-.93,11.119-6.975,16.326" transform="translate(-288.455 -140.592)"/><path class="d" d="M692.93,241.819s8.2.055,10.116-2.619" transform="translate(-278.661 -146.973)"/><rect class="f" width="233.435" height="117.835" transform="translate(240.117 137.067)"/><rect class="f" width="379.608" height="77.565" transform="translate(167.401 290.702)"/><path class="g" d="M398.178,510.35H592.831l38.782,130.516H357.16Z" transform="translate(-140.162 -200.26)"/><path class="h" d="M257.73,402.33v123.8h72.716V454.54H586.252v71.592h72.716V402.33Z" transform="translate(-101.144 -157.872)"/><rect class="i" width="401.238" height="40.271" transform="translate(156.586 244.458)"/><circle class="j" cx="5.967" cy="5.967" r="5.967" transform="translate(530.233 258.633)"/><circle class="k" cx="5.967" cy="5.967" r="5.967" transform="translate(503.384 258.633)"/><rect class="g" width="216.283" height="128.274" transform="translate(248.696 108.723)"/><path class="l" d="M806.151,569.13c.456,4.964-3.293,9.782-2.2,14.643.231,1.039.68,2.023.845,3.038.45,2.886-1.27,5.62-2.916,8.038l-14.114,20.767a12.893,12.893,0,0,1-2.017,2.491c-2.7,2.43-6.75,2.151-10.292,2.868a17.668,17.668,0,0,0-6.9,3.038.45.45,0,0,0-.091.608,5.936,5.936,0,0,0,5.128,2.43c.371.486,0,1.215-.51,1.555-.76.523-1.823.662-1.95,1.95a2.139,2.139,0,0,0,.255,1.294,4.016,4.016,0,0,0,2.473,1.713c4.861,1.495,10.165-1.13,13.823-4.7s6.282-8.081,9.873-11.72c1.987-2.011,4.253-3.737,6.295-5.687,4.083-3.889,7.291-8.622,10.329-13.367a14.705,14.705,0,0,0,2.236-4.551c.377-1.616.207-3.323.644-4.927.571-2.1,2.108-3.767,3.384-5.529a18.266,18.266,0,0,0,3.846-11.921c-.334-4.253-2.959-8.439-6.969-9.885a6.252,6.252,0,0,0-3.907-.237,9.267,9.267,0,0,0-3.98,3.166l-2.679,3.093a7.466,7.466,0,0,0-1.562,2.376,2.473,2.473,0,0,0,.553,2.637" transform="translate(-308.272 -273.185)"/><path class="m" d="M806.151,569.13c.456,4.964-3.293,9.782-2.2,14.643.231,1.039.68,2.023.845,3.038.45,2.886-1.27,5.62-2.916,8.038l-14.114,20.767a12.893,12.893,0,0,1-2.017,2.491c-2.7,2.43-6.75,2.151-10.292,2.868a17.668,17.668,0,0,0-6.9,3.038.45.45,0,0,0-.091.608,5.936,5.936,0,0,0,5.128,2.43c.371.486,0,1.215-.51,1.555-.76.523-1.823.662-1.95,1.95a2.139,2.139,0,0,0,.255,1.294,4.016,4.016,0,0,0,2.473,1.713c4.861,1.495,10.165-1.13,13.823-4.7s6.282-8.081,9.873-11.72c1.987-2.011,4.253-3.737,6.295-5.687,4.083-3.889,7.291-8.622,10.329-13.367a14.705,14.705,0,0,0,2.236-4.551c.377-1.616.207-3.323.644-4.927.571-2.1,2.108-3.767,3.384-5.529a18.266,18.266,0,0,0,3.846-11.921c-.334-4.253-2.959-8.439-6.969-9.885a6.252,6.252,0,0,0-3.907-.237,9.267,9.267,0,0,0-3.98,3.166l-2.679,3.093a7.466,7.466,0,0,0-1.562,2.376,2.473,2.473,0,0,0,.553,2.637" transform="translate(-308.272 -273.185)"/><path class="n" d="M840.16,781.06c-3.087,1.877-6.927,2-10.511,1.555-.608-.067-1.258-.109-1.628.334-.535.65.1,1.6.747,2.12a15.64,15.64,0,0,0,7.224,2.971,48.879,48.879,0,0,0,7.06.468c6.44.109,12.917.219,19.3-.711a2.605,2.605,0,0,0,1.051-.31,1.95,1.95,0,0,0,.8-1.215,4.79,4.79,0,0,0-1.671-4.587,14.536,14.536,0,0,0-4.5-2.43l-5.6-2.181c-1.318-.516-3.427-1.871-4.861-1.768C844.942,775.519,842.384,779.76,840.16,781.06Z" transform="translate(-331.593 -357.346)"/><path class="m" d="M840.16,781.06c-3.087,1.877-6.927,2-10.511,1.555-.608-.067-1.258-.109-1.628.334-.535.65.1,1.6.747,2.12a15.64,15.64,0,0,0,7.224,2.971,48.879,48.879,0,0,0,7.06.468c6.44.109,12.917.219,19.3-.711a2.605,2.605,0,0,0,1.051-.31,1.95,1.95,0,0,0,.8-1.215,4.79,4.79,0,0,0-1.671-4.587,14.536,14.536,0,0,0-4.5-2.43l-5.6-2.181c-1.318-.516-3.427-1.871-4.861-1.768C844.942,775.519,842.384,779.76,840.16,781.06Z" transform="translate(-331.593 -357.346)"/><path class="o" d="M851.812,641.764c-2.327,3.1-4.745,6.683-4.168,10.53.31,2.072,1.47,3.9,2.321,5.815a40.958,40.958,0,0,1,2.351,8.166c.875,4.065,1.75,8.142,2.285,12.267.608,4.66-2.248,18.143-2.515,22.839a4.834,4.834,0,0,1-.984,3.172c-.31.322-.723.608-.857,1a1.683,1.683,0,0,0,.182,1.179,13.077,13.077,0,0,0,7,6.44c2.989,1.264,10.262,3.433,13.507,3.548a2.558,2.558,0,0,0,1.27-.17,2.431,2.431,0,0,0,.984-1.124c2.345-4.478.091-20.421.128-25.482,0-4.253,1.027-8.409.845-12.626-.152-3.384-1.057-6.683-1.385-10.062-.541-5.535.474-11.088,1.495-16.557.778-4.186,1.555-8.379,2.552-12.522a24.138,24.138,0,0,1,2.7-7.291c1.1-1.744,2.594-3.2,3.852-4.861A21.872,21.872,0,0,0,887.684,610c-.073-.559-8.093,2.035-8.792,2.339a27.531,27.531,0,0,0-7.832,5.043,71.228,71.228,0,0,0-4.94,6.106q-3.445,4.192-6.8,8.451Q855.512,636.83,851.812,641.764Z" transform="translate(-339.339 -292.448)"/><path class="m" d="M851.812,641.476c-2.327,3.1-4.745,6.683-4.168,10.536.31,2.066,1.47,3.895,2.321,5.809a41.071,41.071,0,0,1,2.351,8.166c.875,4.065,1.75,8.142,2.285,12.267.608,4.66-2.248,18.149-2.515,22.845a4.817,4.817,0,0,1-.984,3.166c-.31.322-.723.608-.857,1a1.707,1.707,0,0,0,.182,1.215,13.066,13.066,0,0,0,7,6.434c2.989,1.258,10.262,2.43,13.507,2.534a2.559,2.559,0,0,0,1.27-.17,2.431,2.431,0,0,0,.984-1.124c2.345-4.478.091-19.406.128-24.461,0-4.253,1.027-8.415.845-12.632-.152-3.384-1.057-6.683-1.385-10.062-.541-5.535.474-11.088,1.495-16.551.778-4.192,1.555-8.385,2.552-12.528a24.138,24.138,0,0,1,2.7-7.291c1.1-1.738,2.594-3.2,3.852-4.824a21.916,21.916,0,0,0,4.308-16.028c-.073-.565-8.093,2.029-8.792,2.339a27.376,27.376,0,0,0-7.832,5.055,76.892,76.892,0,0,0-4.94,6.076q-3.445,4.192-6.8,8.458Q855.513,636.567,851.812,641.476Z" transform="translate(-339.339 -292.361)"/><circle class="l" cx="13.081" cy="13.081" r="13.081" transform="translate(473.454 254.793)"/><path class="l" d="M823.18,525.775a16.976,16.976,0,0,0,10.858,7.595l-.984,3.567c-1.7,6.155-3.646,12.662-8.366,16.927a7.927,7.927,0,0,0-1.331-6.118,23.457,23.457,0,0,0-4.442-4.642l-7.528-6.55a2.247,2.247,0,0,1-.565-.608,1.951,1.951,0,0,1,0-1.434c.96-2.983,3.7-4.861,5.918-6.866a21.028,21.028,0,0,0,2.977-3.469C821.26,522.032,822.19,524.177,823.18,525.775Z" transform="translate(-324.869 -258.447)"/><path class="o" d="M781.369,499.886l-.292-2.43c2.066.535,4.022-1.215,5.341-3.038s2.546-3.961,4.557-4.715c2.43-.924,5.031.553,7.364,1.768a23.326,23.326,0,0,0,8.458,2.764,5.47,5.47,0,0,1,1.4.231c1.519.541,2.242,2.43,2.461,4.174s.158,3.567.911,5.11c.565,1.167,1.543,2.035,2.139,3.184,1.6,3.1.055,7.327,1.744,10.365l-4.192-3.846c-.389-.352-.93-.717-1.349-.419s-.359.747-.5,1.154a2.192,2.192,0,0,1-2.983,1.088,8.168,8.168,0,0,1-2.667-2.43,16.234,16.234,0,0,0-6.683-5.043,8.542,8.542,0,0,0-7.042.419c-1.956,1.106-3.39,3.682-5.784,3.773-3.287.122-4.654-6-6.179-8.415a2.977,2.977,0,0,0,.863-3.712C779.2,499.765,781.327,499.491,781.369,499.886Z" transform="translate(-312.071 -245.16)"/><path class="n" d="M865.8,779.731a13.829,13.829,0,0,1-9.405,3.506c-.881,0-2.1.17-2.108,1.051a1.41,1.41,0,0,0,.255.729,8.646,8.646,0,0,0,4.861,3.8,17.272,17.272,0,0,0,5.869.377l5.742-.3c1.082-.061,2.169-.115,3.251-.249s2.248-.358,3.378-.523a44.2,44.2,0,0,1,8.36-.395,2.482,2.482,0,0,0,2.06-.559c.462-.559.213-1.568.043-2.376-.34-1.665,0-3.409-.316-5.079-.553-2.935-3.074-5.177-5.857-6.24-2.582-.984-7.163-2.108-9.612-.474C869.7,774.767,868.119,777.635,865.8,779.731Z" transform="translate(-341.98 -356.12)"/><path class="o" d="M875.129,615.27c.51,2.43,2.838,4.253,2.91,6.683.055,1.969-1.355,3.646-2.364,5.316a35.237,35.237,0,0,0-2.43,5.468,83.6,83.6,0,0,1-7.1,14.066c-1.349,2.133-2.856,4.454-2.546,6.963a10.43,10.43,0,0,0,1.215,3.33l4.04,8.026a23.092,23.092,0,0,1,2.066,5.073c.346,1.525.383,3.1.608,4.66.638,4.921,2.947,9.879,1.586,14.649-.121.413-.547.911-.869.608,1.331,2.491,2.43,5.007,2.3,7.832-.055,1.482-.51,3.038.042,4.411a4.793,4.793,0,0,1,.608,1.738c0,.4-.188.784-.231,1.215a2.6,2.6,0,0,0,2.017,2.43c1.088.346,2.26.334,3.354.662,2.108.608,3.6,2.43,5.408,3.694a11.368,11.368,0,0,0,6.209,2.023,1.555,1.555,0,0,0,.911-.182,1.482,1.482,0,0,0,.51-1.112,6.161,6.161,0,0,0-2.224-5.353,2.472,2.472,0,0,1-.82-.863,2.066,2.066,0,0,1-.079-.966,72.121,72.121,0,0,0-.237-13.258,20.053,20.053,0,0,1-.213-4.217,16.388,16.388,0,0,0,.34-3.512,18.786,18.786,0,0,0-1.075-3.36,24.139,24.139,0,0,1-.516-6.258,54.553,54.553,0,0,0-1.774-10.766,8.053,8.053,0,0,0-1.677-3.889c-.839-.875-2.193-1.719-1.877-2.886a3.34,3.34,0,0,1,.766-1.148,4.611,4.611,0,0,0,.966-3.518,1.568,1.568,0,0,0,1.823-.851A28.29,28.29,0,0,0,901,635.812a5.373,5.373,0,0,1,.608-1.44,6.571,6.571,0,0,1,2.6-1.689c2.941-1.476,4.976-4.253,6.841-6.969a16.185,16.185,0,0,0,2.637-5.061,16.6,16.6,0,0,0,.365-3.646l.164-6.331a3.413,3.413,0,0,0-.122-1.215,2.936,2.936,0,0,0-.681-1,12.194,12.194,0,0,0-6.683-3.646c-1.726-.31-3.488-.249-5.231-.395-3.384-.279-6.726-1.325-10.11-1.082-5.322.389-10.056,4.077-12.565,8.786C877.943,613.805,877.019,615.27,875.129,615.27Z" transform="translate(-345.619 -289.85)"/><path class="b" d="M830.208,546.152a6.945,6.945,0,0,1-.383,2.88,2.015,2.015,0,0,1-2.364,1.215c.273-.608-.456-1.331-1.13-1.252a2.1,2.1,0,0,0-1.495,1.27,4.715,4.715,0,0,0-.431,2.922c.213,1.215.93,2.43.741,3.646-.152,1.033-.911,2.066-.5,3.038a4.922,4.922,0,0,0,.972,1.167,3.293,3.293,0,0,1-.346,4.527l10.2.2c-.371,1.707.389,3.451,1.264,4.964a31.267,31.267,0,0,0,23.3,15.19,2.035,2.035,0,0,0-.486,3.1,2.872,2.872,0,0,0,3.269.182,23.9,23.9,0,0,0,2.807-2.1,8.574,8.574,0,0,1,5.76-1.555c1.276.122,2.515.535,3.8.608,3.779.2,7.024-2.515,10.639-3.646,2.649-.814,5.644-.814,7.9-2.467a3.134,3.134,0,0,0,1.464-3.038,5.036,5.036,0,0,0-1.1-1.786,30.26,30.26,0,0,1-2.947-5.523,33.1,33.1,0,0,0-7.37-9.867,66.18,66.18,0,0,0-7.291-5.547,12.843,12.843,0,0,0-1.981-1.215,20.736,20.736,0,0,1-2.71-1.1c-1.215-.753-1.89-2.084-2.807-3.159-2.023-2.357-5.128-3.445-7.619-5.3-1.671-1.215-3.141-2.88-5.14-3.481-.966-.292-2-.316-2.971-.608-2.2-.668-3.8-2.625-5.966-3.415-1.713-.608-3.6-.462-5.408-.687a12.492,12.492,0,0,1-5.547-2.108,6.688,6.688,0,0,0-1.823-1.045c-2.728-.832-2.953,4.253-3.208,6.021A54.287,54.287,0,0,0,830.208,546.152Z" transform="translate(-330.226 -261.903)"/><path class="l" d="M813.991,577.947c.456,4.964-3.293,9.776-2.2,14.643.231,1.039.68,2.023.845,3.038.456,2.886-1.27,5.62-2.916,8.032l-14.114,20.719a12.9,12.9,0,0,1-2.017,2.491c-2.7,2.43-6.75,2.151-10.293,2.868a17.712,17.712,0,0,0-6.9,3.038.45.45,0,0,0-.091.608,5.918,5.918,0,0,0,5.128,2.43c.371.492,0,1.215-.51,1.555-.759.529-1.823.668-1.95,1.956a2.138,2.138,0,0,0,.255,1.294,4.041,4.041,0,0,0,2.473,1.713c4.861,1.495,10.165-1.13,13.823-4.7s6.282-8.081,9.879-11.72c1.987-2.011,4.253-3.737,6.289-5.687,4.089-3.889,7.261-8.622,10.329-13.367a14.769,14.769,0,0,0,2.236-4.551c.377-1.616.207-3.324.644-4.928.571-2.1,2.108-3.773,3.384-5.529a18.268,18.268,0,0,0,3.846-11.921c-.334-4.253-2.959-8.439-6.969-9.885a6.21,6.21,0,0,0-3.907-.237,9.3,9.3,0,0,0-3.98,3.166l-2.679,3.093a7.345,7.345,0,0,0-1.555,2.376,2.461,2.461,0,0,0,.547,2.631" transform="translate(-311.349 -276.625)"/><path class="b" d="M844.242,549.666c-1.859.109-3.9.292-5.213,1.616a7.492,7.492,0,0,0-1.312,2.054c-1.27,2.594-2.509,5.3-2.6,8.19-.079,2.309.608,4.563.942,6.847.292,1.9-.45,3.828-.608,5.748a39.954,39.954,0,0,0,7.431-2.856,24.6,24.6,0,0,1,4.344-2.26c2.218-.735,5.942.529,8.032,1.568.115-1.483-.99-4.053-.875-5.535a6.263,6.263,0,0,1,.328-1.823,11.21,11.21,0,0,1,1.112-1.768,7.242,7.242,0,0,0-.65-8.506c-1.865-2.1-4.794-2.892-7.583-3.214a32.893,32.893,0,0,0-5.3-.188" transform="translate(-334.454 -268.74)"/><path class="p" d="M334.131,417.719l-11.982-17.377s-.225-4.3-1.009-5.3-.17-3.238-.17-3.238.845-1.215.115-1.343-.115-2.85-.115-2.85l-.055-4.356s.674-4.192.115-5.195a1.647,1.647,0,0,1,.055-1.792s.668-2.4,0-3.038-.5-4.356-.34-7.321-1.173-4.636-1.173-5.079-4.423-4.806-4.423-5.2-2.8-2.011-4.484-2.43-2.515-.784-2.461-1.009-2.631-1.112-2.631-1.112-2.351-.17-3.251-1.343-3.646-1.513-3.712-1.525l-.055-.231a1.26,1.26,0,0,0-.049-.255,11.764,11.764,0,0,0,.608-1.094l.158-.34a4.751,4.751,0,0,0,2.752-.857,3.724,3.724,0,0,0,1.343-2.679,5.857,5.857,0,0,0-.656-2.977c-.492-1-1.215-2.048-.96-3.141.109-.468.389-.881.535-1.343a3.548,3.548,0,0,0-.4-2.649c-.425-.808-1.015-1.525-1.489-2.309a9.113,9.113,0,0,1-1.185-3.269,5.037,5.037,0,0,0-.431-1.78,3.323,3.323,0,0,0-.984-.99,9.831,9.831,0,0,0-6.021-1.823,29.457,29.457,0,0,1-4.557.273,16.328,16.328,0,0,1-2.661-.693c-1.877-.559-4.047-.784-5.681.292s-2.285,3.19-3.4,4.861c-.978,1.458-2.43,2.686-3.159,4.253v-.085a5.09,5.09,0,0,0-.419,1.124,8.008,8.008,0,0,0,.249,3.706,2.576,2.576,0,0,0,.905,1.653,5.224,5.224,0,0,0,1.956.389l-.073.316a12.79,12.79,0,0,0,8.877,14.874c0,.115,0,.225,0,.34a8.141,8.141,0,0,1-.061.96h0s-5.632-1.16-7.145-.377-4.478,1.4-4.928,1.823-1.568.115-2.576,2.74-1.118,5.3-2.43,6.538-1.956,2.066-2.017,2.959.17,1.118-.334,1.4-1.215,1.452-1.009,1.9a1.586,1.586,0,0,1-.608,1.671,1.859,1.859,0,0,0-.784,1.677s-.34,1.215-1.124,1.513-1.288,2.12-1.288,2.12l-2.54,2.916-5.031-5.565a2.127,2.127,0,0,0-3-.152l-2.473,2.224a4.9,4.9,0,0,0-2.473,1.47,6.586,6.586,0,0,0-1.282,1.908l-1.349,1.215a3.445,3.445,0,0,0-.352,3.8l3.226,3.567v.03a5.711,5.711,0,0,0-3.117,1.27c-4.812,4.253-4.861,8.16-4.144,9.946s6.829,8.658,6.829,8.658a27.259,27.259,0,0,0,8.67,7.06h0l-.036.043a4.219,4.219,0,0,0-.3.346l-.085.109-.079.109-.091.134a1.059,1.059,0,0,0-.067.109l-.1.158a.982.982,0,0,0-.061.109c-.043.073-.079.146-.115.219a.812.812,0,0,0-.036.073c-.049.1-.1.194-.14.3l-.049.109c-.03.073-.055.146-.085.225a1.361,1.361,0,0,0-.049.146l-.073.219a1.214,1.214,0,0,0-.049.158,1.328,1.328,0,0,1-.067.243c-.018.085-.03.1-.043.152s-.061.261-.085.4a.305.305,0,0,1-.03.158,1.454,1.454,0,0,0-.049.286.778.778,0,0,0,0,.207l-.036.273v.219a1.138,1.138,0,0,1-.03.316c-.03.109,0,.128,0,.194v.541c-.109,6.538.273,7.485.273,7.485a3.645,3.645,0,0,0,2.971,2.23,3.707,3.707,0,0,0,.954-.049c2.916-.5,9.721-1.677,12.152-1.215a20.888,20.888,0,0,0,6.039-.492l.5-.1.346,1.112,1.106-.3.942.541.608.346c1.106,3.743,5.59,2.467,5.59,2.467l1.063.608,10.809.279a21.692,21.692,0,0,0,3.828,1.823,2.943,2.943,0,0,0,.541.121,24.041,24.041,0,0,0,3.038.055c.826,0,1.464-.055,1.464-.055s-.109-2.935-.267-6.222a88.186,88.186,0,0,0,10.013-.82c5.772-1.009,8.178-6.258,9.065-9.065a26.5,26.5,0,0,1,.565,3.481,25.252,25.252,0,0,0,.9,3.038,10.13,10.13,0,0,0,1.215,2.236c4.253-1.452,1.677-3.646.784-4.581s.608-1.732.608-1.732,1.179-.784,1.063-1.507-.17-1.507,3.646-1.452S334.131,417.719,334.131,417.719ZM275,382.047a28.985,28.985,0,0,0,1.057,4.666,6.076,6.076,0,0,1,.128,1.823c-2.254-.182-4.605-.28-4.605-.28a.571.571,0,0,1,.122.286l-.358-.079-.51-.122,4.156-6.325Zm-8.239,13.1,3.907.608.328.049a12.764,12.764,0,0,0-.2,1.823c0,.061.085.128.213.207a4.808,4.808,0,0,0-.073.93c.061.3,1.883.972,3.98,1.525-.03.115-.055.225-.085.322h0c-1.853-.972-4.763-1.428-5.1-2.151s-10.25-4.186-10.25-4.186l-.984-.492,2.607.492.717-.073A38.721,38.721,0,0,0,266.762,395.147Z" transform="translate(-99.61 -179.3)"/><path class="q" d="M330.55,470.257s-1.549,9.381-9.43,10.766-34.189,1.112-34.189,1.112-15.044-2.169-20.482-14.874-8.938-17.766-4.253-17.985,29.808,8.506,31.248,8.6S331.941,438.566,330.55,470.257Z" transform="translate(-108.777 -229.408)"/><path class="m" d="M330.55,470.257s-1.549,9.381-9.43,10.766-34.189,1.112-34.189,1.112-15.044-2.169-20.482-14.874-8.938-17.766-4.253-17.985,29.808,8.506,31.248,8.6S331.941,438.566,330.55,470.257Z" transform="translate(-108.777 -229.408)"/><path class="n" d="M259.818,491.81a3.591,3.591,0,0,0,2.941,2.218,4.022,4.022,0,0,0,.954-.055c2.886-.5,9.655-1.665,12.042-1.215a20.9,20.9,0,0,0,5.979-.486c1.258-.237,2.181-.462,2.181-.462s-2.224-7.382-2.5-7.6-9.995-6.076-9.995-6.076l-7.692-.553h0a4.065,4.065,0,0,0-2.613,1.531,8.236,8.236,0,0,0-1.555,5.237C259.436,490.856,259.818,491.81,259.818,491.81Z" transform="translate(-108.592 -240.516)"/><path class="m" d="M259.832,491.833a3.591,3.591,0,0,0,2.941,2.218,32.67,32.67,0,0,1-2.09-3.038l.043-5.383a9.5,9.5,0,0,1,3.038-7.99h0s-4.053.273-4.168,6.769S259.832,491.833,259.832,491.833Z" transform="translate(-108.605 -240.54)"/><path class="r" d="M312.03,470.738l7.163-5.608,11.265-11.1-3.038-.14c-.456.292-1.732,1.215-1.78,2.321-.055,1.355-3.038.1-4.6.869s-9.156,10.511-10.487,10.444-2.388-.674-2.947.273l-.036.061Z" transform="translate(-127.44 -231.22)"/><path class="r" d="M262.11,479.115c.255.122.516.243.778.352,5.438,2.333,12.152,7.218,12.656,8.105.3.541,4.2,2.9,7.2,4.678,1.258-.237,2.181-.462,2.181-.462s-2.224-7.382-2.5-7.6-9.995-6.076-9.995-6.076l-7.692-.553h0a4.065,4.065,0,0,0-2.631,1.555Z" transform="translate(-109.601 -240.508)"/><path class="q" d="M237.055,446.688c.717,1.774,6.769,8.6,6.769,8.6a26.207,26.207,0,0,0,9.272,7.291c5.444,2.3,12.152,7.218,12.65,8.105.322.571,4.66,3.184,7.71,4.976l.687.4,1.513.881.8.456s1.859-1.489,3.712-2.989,3.646-2.971,3.646-3.038.778-2.054.608-2.163-.468-.826-1.173-1.719a7.826,7.826,0,0,0-2.825-2.333,8.051,8.051,0,0,1-3.646-3.822s-.243-.176-.608-.413a7.522,7.522,0,0,0-2.491-1.112c-1.215-.152-3.5-2.649-3.5-2.649a6.793,6.793,0,0,1-2.163-2.272c-.608-1.215-9.193-7.133-9.989-7.68l20.865,13.4,4.994,3.208,7.163-5.6,11.265-11.1-3.718-.17c-5.468-.237-15.19-.608-16.4-.328a9.532,9.532,0,0,1-3.038.2,10.758,10.758,0,0,1-4.605-.845c-1.835-.966-4.721-1.422-5.055-2.139s-10.153-4.156-10.153-4.156-13.367-7.1-18.149-2.886S236.332,444.9,237.055,446.688Z" transform="translate(-99.638 -223.987)"/><path class="s" d="M308.24,376.268l1.719,5.717,2.224,12.875,8.16.553,2.333-3.889,2.357-3.913s1.47-5.2,2.528-10.232c.93-4.454,1.543-8.78.529-9.247-.905-.413-1.495-1.914-1.884-3.53-.049-.194-.091-.4-.128-.608a31.988,31.988,0,0,1-.547-4.138s-17.091-.887-14.7,6.161a11.247,11.247,0,0,1,.644,3.749,4.908,4.908,0,0,1-.061.954A7.99,7.99,0,0,1,308.24,376.268Z" transform="translate(-127.703 -194.306)"/><path class="t" d="M302.4,382.362l.608,9.721,1.385,8.269,1.555,3.834,1.391,20.95s13.367,1.549,16.636-.03a1.385,1.385,0,0,0,.608-.456c3.931-5.936,2.643-23.131,2.643-23.131l1.495-11.1-1-5.76-2.43-.255-1.859-.2s-.419.516-1.027,1.318c-1.647,2.169-4.672,6.446-4.466,8.227.273,2.43-.334,4.94-1.282,5.329s-1.719,1.057-1.884.389a2.983,2.983,0,0,1-.17-1.774,14.425,14.425,0,0,0-.723-3.834s-1.495-3.384-1.385-4.824-.164-3.111-.608-3.5-1.057-.778-.559-2.552-2.187-5.231-2.187-5.231Z" transform="translate(-125.412 -201.342)"/><path class="r" d="M331.474,402.586l.559,16.593,3.2,1.78a1.44,1.44,0,0,0,.608-.462c3.931-5.936,2.643-23.131,2.643-23.131l1.5-11.1-1-5.76-2.43-.255c.936-4.454,1.543-8.774.529-9.247-.905-.413-1.495-1.914-1.877-3.524h0l-1.732,11.739s.146,1.057.194,2.151a6.074,6.074,0,0,1-.14,2.066,6.9,6.9,0,0,0-.109,2.777c-1,1.762-1.5,5.031-1.744,8.184C331.347,398.588,331.474,402.586,331.474,402.586Z" transform="translate(-136.811 -197.311)"/><path class="n" d="M335.454,367s2.8.346,3.688,1.513,3.22,1.337,3.22,1.337,2.661.887,2.607,1.106.778.559,2.43,1,4.441,2.054,4.441,2.43,4.381,4.715,4.381,5.158,1.331,2.108,1.167,5.049-.334,6.683.334,7.291,0,3,0,3a1.641,1.641,0,0,0-.055,1.78c.553,1-.115,5.158-.115,5.158l.061,4.332s-.608,2.716.109,2.831-.109,1.331-.109,1.331-.608,2.218.164,3.22,1,5.268,1,5.268l11.878,17.262s.17,3.166-3.6,3.111-3.725.723-3.609,1.44-1.057,1.5-1.057,1.5-1.495.778-.608,1.719,3.439,3.111-.778,4.551a10.049,10.049,0,0,1-1.215-2.218,25.188,25.188,0,0,1-.887-3s-.389-4.223-1.167-4.776-.668-3.22-.668-3.22,1.112-2.163-.444-3.038-24.085-13.367-24.085-13.367l-.547-16.6s-.389-12.267,1.944-16.374a6.9,6.9,0,0,1,.109-2.777c.389-1-.055-4.217-.055-4.217Z" transform="translate(-137.011 -197.123)"/><path class="r" d="M300.694,377.586s-5.578-1.148-7.078-.371-4.435,1.385-4.861,1.823-1.549.115-2.552,2.722-1.106,5.274-2.388,6.5-1.938,2.054-1.993,2.941.164,1.112-.334,1.385-1.215,1.446-1,1.89,11.544,10.214,11.544,10.214a26.769,26.769,0,0,0,1.057,4.66c.5.942-.553,13.932-1.665,14.819s7.467.814,7.467.814.389-8.506.723-8.968-.225-9.545-.225-9.545-.055-7.771.668-9.825.608-8.883.608-8.883.638-4.1,1.416-5.049S300.694,377.586,300.694,377.586Z" transform="translate(-116.797 -201.026)"/><path class="n" d="M300.422,377.314s-5.578-1.148-7.078-.377-4.441,1.391-4.861,1.823-1.555.109-2.552,2.722-1.112,5.268-2.388,6.489-1.944,2.054-2,2.941.17,1.112-.334,1.391-1.215,1.44-1,1.884S291.758,404.4,291.758,404.4a26.21,26.21,0,0,0,1.057,4.66c.5.942-.559,13.932-1.671,14.819s7.5.808,7.5.808.389-8.506.717-8.962-.219-9.551-.219-9.551-.055-7.765.668-9.819.638-8.883.638-8.883.638-4.1,1.416-5.049S300.422,377.314,300.422,377.314Z" transform="translate(-116.69 -200.918)"/><path class="r" d="M312.392,366a11.247,11.247,0,0,1,.644,3.749,12.759,12.759,0,0,0,14.582-5.772,32,32,0,0,1-.547-4.138S310,358.943,312.392,366Z" transform="translate(-129.243 -194.298)"/><path class="s" d="M298.65,347.351a12.717,12.717,0,1,0,.279-2.643,12.58,12.58,0,0,0-.279,2.643Z" transform="translate(-123.94 -184.425)"/><path class="n" d="M278.027,404l-3.038.942a1.574,1.574,0,0,1-.608,1.665,1.823,1.823,0,0,0-.772,1.665s-.334,1.215-1.112,1.5-1.276,2.108-1.276,2.108l-2.552,2.941s-.948.778-.778,1.167-1,.5-1,.5l.608,9.879,5.274,1,3.275-.334,2.661-1,2.333-1.391,1.051-2.716,4.666-7.109Z" transform="translate(-111.477 -211.642)"/><path class="s" d="M259.35,421.889s-6.769-9.764-11.824-4.5,2.054,13.823,3.718,13.543,9.606-.723,9.606-.723Z" transform="translate(-103.178 -216.286)"/><rect class="n" width="35.441" height="27.518" rx="1.54" transform="translate(141.386 185.694) rotate(27.04)"/><rect class="b" width="29.79" height="22.45" transform="translate(142.804 189.195) rotate(27.04)"/><circle class="u" cx="0.486" cy="0.486" r="0.486" transform="translate(136.195 198.178)"/><circle class="u" cx="0.808" cy="0.808" r="0.808" transform="translate(164.594 212.572)"/><path class="s" d="M260.93,426.957c-.061,7.328,15.092,8.883,15.092,8.883l3.87.608,1.738.273.723-7.157s-.8-.122-1.786-.352c-1.47-.34-3.372-.93-3.767-1.762C276.162,426.07,260.972,419.63,260.93,426.957Z" transform="translate(-109.138 -219.301)"/><path class="r" d="M299.11,344.715a1.507,1.507,0,0,1,.93.413c.425.456.45,1.264,1.009,1.543a1.167,1.167,0,0,0,.662.073c1.476-.207,2.327-1.871,3.749-2.333a3.761,3.761,0,0,1,2.479.213,1.938,1.938,0,0,1,.826.529c.474.608.14,1.519.358,2.26.3,1.033,1.537,1.44,2.6,1.574s2.266.213,2.977,1.015a2.7,2.7,0,0,1,.529,2.151,1.677,1.677,0,0,0,0,.8c.292.832,1.732.7,2.108.049.279-.48.194-.875.845-1.009a2.752,2.752,0,0,1,1.355.237,10.05,10.05,0,0,0,3.518.541,12.711,12.711,0,1,0-23.939-8.051Z" transform="translate(-124.121 -184.432)"/><path class="n" d="M313.217,348.234a1.683,1.683,0,0,1,0-.8,2.679,2.679,0,0,0-.529-2.145c-.711-.808-1.908-.881-2.977-1.021s-2.3-.541-2.6-1.574c-.219-.741.115-1.647-.358-2.254a1.823,1.823,0,0,0-.826-.529,3.767,3.767,0,0,0-2.479-.219c-1.422.462-2.272,2.127-3.749,2.333a1.118,1.118,0,0,1-.662-.073c-.559-.279-.608-1.088-1.009-1.543-.674-.711-1.956-.249-2.777-.778a2.558,2.558,0,0,1-.9-1.647,7.984,7.984,0,0,1-.243-3.682c.48-2.06,2.327-3.475,3.5-5.243,1.1-1.641,1.719-3.718,3.366-4.806s3.767-.845,5.632-.292a15.9,15.9,0,0,0,2.637.693,29.677,29.677,0,0,0,4.514-.273,9.661,9.661,0,0,1,5.967,1.823,3.263,3.263,0,0,1,.972.984,5.111,5.111,0,0,1,.437,1.768,8.98,8.98,0,0,0,1.173,3.245c.462.784,1.051,1.489,1.47,2.3a3.561,3.561,0,0,1,.4,2.631c-.146.456-.425.869-.535,1.337-.243,1.081.468,2.12.954,3.117a5.845,5.845,0,0,1,.65,2.959,3.706,3.706,0,0,1-1.331,2.661,4.806,4.806,0,0,1-2.813.857,10.117,10.117,0,0,1-3.585-.541,2.826,2.826,0,0,0-1.355-.237c-.65.134-.565.529-.845,1.009C314.948,348.939,313.514,349.066,313.217,348.234Z" transform="translate(-122.114 -180.052)"/><path class="r" d="M311.134,471.263l7.163-5.6,11.265-11.1-3.718-.17a2.43,2.43,0,0,0-.784,1.519c-.055,1.355-3.038.091-4.6.869s-9.156,10.511-10.487,10.444-2.388-.674-2.947.267l-.036.061a1.567,1.567,0,0,1-.851.5Z" transform="translate(-126.879 -231.416)"/><path class="q" d="M290.61,468.414l3.6,11.489.565,1.823,1.713-.468,3.779-1.039,16.818-4.618a14.624,14.624,0,0,0,6.076-1.616,18.331,18.331,0,0,1,10.451-2.278c2.224.207,4.7-.753,6.75-4.545,0,0,4.66-13.762-7.1-17.705s-12.328,2.1-12.328,2.1l-.164.1c-.456.292-1.732,1.215-1.78,2.321-.055,1.355-3.038.1-4.6.869s-9.156,10.511-10.487,10.444-2.388-.674-2.947.273l-.036.061c-.413.565-1.647.7-2.467.717a7.3,7.3,0,0,1-.766,0l-.109.03-.851.255Z" transform="translate(-120.785 -228.956)"/><path class="r" d="M292.14,440.136l1.738.273.723-7.157s-.8-.122-1.786-.352C293.076,433.9,292.48,437.761,292.14,440.136Z" transform="translate(-121.386 -222.983)"/><path class="r" d="M337.692,389.639s5.158-1.5,3.883,13.154a40.976,40.976,0,0,1-10.821,23.921s-10.991,4.824-15.931,4.047-8.543-.942-8.543-.942a12.559,12.559,0,0,0-5-1.331c-2.771-.109-8.6-1.823-8.713-2.388s1.446-8.713.778-9.32c0,0,7.771.316,8.549.875s1.89.164,2.722,0,3.384-2.376,8.433-.431a5.121,5.121,0,0,0,2.388-.279,2.388,2.388,0,0,1,1.738-.109,4.769,4.769,0,0,0,1.215-.608c.164-.219,1.5,0,1.5,0a.608.608,0,0,0,.832-.389,3.645,3.645,0,0,1,.778-1.215s1.495-8.433,4.326-11.6a1.823,1.823,0,0,0,.608-1.61C326.2,400.515,331.032,387.859,337.692,389.639Z" transform="translate(-121.55 -205.94)"/><path class="n" d="M337.466,387.782s5.164-1.495,3.889,13.154a40.945,40.945,0,0,1-10.821,23.921s-10.991,4.83-15.931,4.053-8.549-.96-8.549-.96a12.51,12.51,0,0,0-4.994-1.331c-2.777-.115-8.6-1.823-8.713-2.388s1.44-8.713.778-9.326c0,0,7.771.322,8.549.881s1.884.158,2.716,0,3.384-2.376,8.439-.437a5.065,5.065,0,0,0,2.382-.273,2.43,2.43,0,0,1,1.738-.115,5.046,5.046,0,0,0,1.215-.608c.164-.225,1.495,0,1.495,0a.608.608,0,0,0,.832-.389,3.646,3.646,0,0,1,.778-1.215s1.5-8.433,4.332-11.6a1.823,1.823,0,0,0,.608-1.61C325.982,398.664,330.807,386.026,337.466,387.782Z" transform="translate(-121.464 -205.213)"/><path class="r" d="M300.64,478.355l7.328,8.871.049-.049c.055-.17.778-2.054.608-2.169s-1.44-2.886-3.992-4.053a7.57,7.57,0,0,1-3.141-2.856Z" transform="translate(-124.721 -240.72)"/><path class="r" d="M300.685,497.471l.8.456s1.859-1.489,3.712-2.989,3.646-2.971,3.646-3.038.778-2.054.608-2.163-.468-.826-1.173-1.719c-4.97-1.391-1.823,2.06-1.385,2.218,0,0-6.045-1.391-6.38,5.2A8.154,8.154,0,0,0,300.685,497.471Z" transform="translate(-124.669 -244.482)"/><path class="n" d="M307.155,500.24l1.057.608,10.712.273a21.454,21.454,0,0,0,3.791,1.823,3.562,3.562,0,0,0,.535.115,23.69,23.69,0,0,0,2.989.055c.82,0,1.452-.055,1.452-.055s-.5-13.507-.887-14.928c-.182-.681-1.082-.535-1.969-.194a13.419,13.419,0,0,0-1.92.972,34.594,34.594,0,0,0-5.268.832c-.723.389-2.777-.225-4.053,0s-3.554-1.5-3.554-1.5c-6.216-2.054-2.716,1.774-2.272,1.944,0,0-6.076-1.391-6.386,5.2S307.155,500.24,307.155,500.24Z" transform="translate(-125.008 -244.462)"/><path class="v" d="M336.376,495.044c.115,2.795,2.3,6.264,3.6,8.1.82,0,1.452-.055,1.452-.055s-.5-13.507-.887-14.928c-.182-.68-1.082-.535-1.969-.194C337.494,489.983,336.279,492.784,336.376,495.044Z" transform="translate(-138.742 -244.479)"/><path class="r" d="M336.376,495.044c.115,2.795,2.3,6.264,3.6,8.1.82,0,1.452-.055,1.452-.055s-.5-13.507-.887-14.928c-.182-.68-1.082-.535-1.969-.194C337.494,489.983,336.279,492.784,336.376,495.044Z" transform="translate(-138.742 -244.479)"/><path class="m" d="M333.243,495.414c.741,2.7.729,5.724,1.908,7.558a3.555,3.555,0,0,0,.535.115,23.685,23.685,0,0,0,2.989.055c.82,0,1.452-.055,1.452-.055s-.5-13.507-.887-14.928c-.182-.68-1.082-.535-1.969-.194a13.422,13.422,0,0,0-1.92.972S332.3,491.957,333.243,495.414Z" transform="translate(-137.444 -244.479)"/><path class="r" d="M272.54,455.34a22.134,22.134,0,0,1,9.831,7.862Z" transform="translate(-113.694 -231.789)"/><g class="w" transform="translate(171.864 153.138)"><path d="M343.559,345.72a.183.183,0,0,1-.03.122,3.345,3.345,0,0,1-.188.462A4.25,4.25,0,0,1,343.559,345.72Z" transform="translate(-313.341 -341.91)"/><path d="M294.084,340.568a4.746,4.746,0,0,1,.413-1.118,1.372,1.372,0,0,1-.085.286,8.069,8.069,0,0,0,.249,3.682,2.576,2.576,0,0,0,.893,1.647c.826.529,2.108.067,2.783.778.425.456.45,1.264,1.009,1.543a1.118,1.118,0,0,0,.662.073c1.476-.207,2.327-1.871,3.749-2.333a3.731,3.731,0,0,1,2.479.219,1.823,1.823,0,0,1,.826.529c.474.608.14,1.513.358,2.254.3,1.033,1.537,1.44,2.6,1.574s2.266.213,2.977,1.021a2.679,2.679,0,0,1,.529,2.145,1.683,1.683,0,0,0,0,.8c.292.832,1.732.7,2.108.049.279-.48.194-.875.845-1.009a2.825,2.825,0,0,1,1.355.237,10.116,10.116,0,0,0,3.585.541,4.806,4.806,0,0,0,2.813-.857,3.147,3.147,0,0,0,.863-1.051,3.5,3.5,0,0,1-1.215,1.884,4.806,4.806,0,0,1-2.813.857,10.117,10.117,0,0,1-3.585-.541,2.825,2.825,0,0,0-1.355-.237c-.65.134-.565.529-.838,1.009-.383.656-1.823.784-2.114-.049a1.761,1.761,0,0,1,0-.8,2.679,2.679,0,0,0-.529-2.145c-.711-.808-1.908-.881-2.977-1.021s-2.3-.541-2.6-1.574c-.219-.741.115-1.647-.358-2.254a1.822,1.822,0,0,0-.82-.529,3.785,3.785,0,0,0-2.485-.219c-1.416.462-2.272,2.127-3.749,2.333a1.118,1.118,0,0,1-.662-.073c-.559-.279-.608-1.088-1.009-1.543-.674-.711-1.95-.249-2.777-.778a2.558,2.558,0,0,1-.9-1.647A7.984,7.984,0,0,1,294.084,340.568Z" transform="translate(-293.966 -339.45)"/></g><path class="r" d="M342.25,412.7c-1.021,1.373-2.181,2.643-3.08,4.089a7.783,7.783,0,0,0-1.349,4.861,12.639,12.639,0,0,0,1.944-3.475,48.618,48.618,0,0,1,3.737-5.608c.237-.358,1.768-2.43,1-2.515C343.854,409.957,342.6,412.23,342.25,412.7Z" transform="translate(-139.306 -214.015)"/><path class="x" d="M349.615,608.9c.735,2.357,1.476,4.721,2.394,7.012a59.631,59.631,0,0,0,6.2,11.307,82.058,82.058,0,0,0,5.128,6.72c2.285,2.692,4.861,5.4,5.638,8.84a45.109,45.109,0,0,1,.5,6.076c.194,2.017.857,4.18,2.5,5.4A9.121,9.121,0,0,0,376.1,655.6c1.033.164,2.321.219,2.856-.674a2.594,2.594,0,0,0,.286-1.179l.249-2.971c.049-.644.279-1.464.924-1.495s.966.826,1.513,1.215a1.647,1.647,0,0,0,2.224-.772,3.749,3.749,0,0,0,.061-2.613,12.377,12.377,0,0,0-6.361-7.9,18.227,18.227,0,0,1-3.1-1.61,10.591,10.591,0,0,1-2.43-3.074c-5.638-9.284-11.307-18.616-15.287-28.721a21.267,21.267,0,0,1-1.574-5.663,37.174,37.174,0,0,1,.243-5.979,34.024,34.024,0,0,0-.984-10.651,8.505,8.505,0,0,0-1.015-2.588c-1.641-2.485-5.468-2.856-7.9-1.142a8.142,8.142,0,0,0-3.147,5.754c-.176,2.017.984,4.107,1.574,5.985Q346.911,600.222,349.615,608.9Z" transform="translate(-141.202 -280.211)"/><path class="m" d="M349.615,608.9c.735,2.357,1.476,4.721,2.394,7.012a59.631,59.631,0,0,0,6.2,11.307,82.058,82.058,0,0,0,5.128,6.72c2.285,2.692,4.861,5.4,5.638,8.84a45.109,45.109,0,0,1,.5,6.076c.194,2.017.857,4.18,2.5,5.4A9.121,9.121,0,0,0,376.1,655.6c1.033.164,2.321.219,2.856-.674a2.594,2.594,0,0,0,.286-1.179l.249-2.971c.049-.644.279-1.464.924-1.495s.966.826,1.513,1.215a1.647,1.647,0,0,0,2.224-.772,3.749,3.749,0,0,0,.061-2.613,12.377,12.377,0,0,0-6.361-7.9,18.227,18.227,0,0,1-3.1-1.61,10.591,10.591,0,0,1-2.43-3.074c-5.638-9.284-11.307-18.616-15.287-28.721a21.267,21.267,0,0,1-1.574-5.663,37.174,37.174,0,0,1,.243-5.979,34.024,34.024,0,0,0-.984-10.651,8.505,8.505,0,0,0-1.015-2.588c-1.641-2.485-5.468-2.856-7.9-1.142a8.142,8.142,0,0,0-3.147,5.754c-.176,2.017.984,4.107,1.574,5.985Q346.911,600.222,349.615,608.9Z" transform="translate(-141.202 -280.211)"/><path class="y" d="M295.045,780.518a8.1,8.1,0,0,0,3.427.413c.085-.948,1.361-1.16,2.309-1.112a2.637,2.637,0,0,1,1.318.3c.237.152.419.371.65.529a2.814,2.814,0,0,0,1.343.346l4.934.413a14.849,14.849,0,0,0,6.55-.425,2.26,2.26,0,0,0,1.051-.7c.559-.8,0-1.95-.772-2.534s-1.768-.845-2.546-1.44c-1.713-1.306-1.95-3.749-2.856-5.705a16.834,16.834,0,0,0-2.364-3.421,13.13,13.13,0,0,0-2.327-2.388c-1.981-1.428-4.253-1.4-6.58-1.6-1.64-.146-3.184-.243-4.362,1.215-1.458,1.823-.875,5.468-.784,7.595A54.963,54.963,0,0,0,295.045,780.518Z" transform="translate(-122.054 -352.563)"/><path class="m" d="M295.045,780.518a8.1,8.1,0,0,0,3.427.413c.085-.948,1.361-1.16,2.309-1.112a2.637,2.637,0,0,1,1.318.3c.237.152.419.371.65.529a2.814,2.814,0,0,0,1.343.346l4.934.413a14.849,14.849,0,0,0,6.55-.425,2.26,2.26,0,0,0,1.051-.7c.559-.8,0-1.95-.772-2.534s-1.768-.845-2.546-1.44c-1.713-1.306-1.95-3.749-2.856-5.705a16.834,16.834,0,0,0-2.364-3.421,13.13,13.13,0,0,0-2.327-2.388c-1.981-1.428-4.253-1.4-6.58-1.6-1.64-.146-3.184-.243-4.362,1.215-1.458,1.823-.875,5.468-.784,7.595A54.963,54.963,0,0,0,295.045,780.518Z" transform="translate(-122.054 -352.563)"/><path class="o" d="M291.643,631.243c-1.507.486-2.163,2.364-1.884,3.925a14.438,14.438,0,0,0,1.987,4.3c2.2,3.931,3.147,8.427,4.994,12.528,1.379,3.038,3.245,5.894,4.605,8.968s2.206,6.544,1.379,9.807c-.4,1.586-1.179,3.038-1.7,4.6a25.521,25.521,0,0,0-1,5.195,98.669,98.669,0,0,0-.358,18.021,5.383,5.383,0,0,0,.45,2.127c.31.608.845,1.215.608,1.823-.1.249-.328.431-.437.674-.316.681.316,1.4.893,1.89a1.574,1.574,0,0,1-.966.747,2.285,2.285,0,0,1,.972,2.546c-.51.079-.541.863-.219,1.276s.832.668,1.063,1.136a1.586,1.586,0,0,1-.875,1.993,4.161,4.161,0,0,1-2.382.182,26.118,26.118,0,0,1-3.98-.875,2.88,2.88,0,0,1-2.321-2.977,44.24,44.24,0,0,1-.273-7.455c.213-12.055,0-24.121-.522-36.17a41.224,41.224,0,0,0-3.548-14.041,73.685,73.685,0,0,0-3.457-6.683c-2.71-4.958-5.1-10.451-4.484-16.071.067-.608.286-1.331.887-1.428a1.288,1.288,0,0,1,.687.115,30.863,30.863,0,0,1,3.615,1.993A13.645,13.645,0,0,0,291.643,631.243Z" transform="translate(-116.66 -299.256)"/><path class="m" d="M291.643,631.243c-1.507.486-2.163,2.364-1.884,3.925a14.438,14.438,0,0,0,1.987,4.3c2.2,3.931,3.147,8.427,4.994,12.528,1.379,3.038,3.245,5.894,4.605,8.968s2.206,6.544,1.379,9.807c-.4,1.586-1.179,3.038-1.7,4.6a25.521,25.521,0,0,0-1,5.195,98.669,98.669,0,0,0-.358,18.021,5.383,5.383,0,0,0,.45,2.127c.31.608.845,1.215.608,1.823-.1.249-.328.431-.437.674-.316.681.316,1.4.893,1.89a1.574,1.574,0,0,1-.966.747,2.285,2.285,0,0,1,.972,2.546c-.51.079-.541.863-.219,1.276s.832.668,1.063,1.136a1.586,1.586,0,0,1-.875,1.993,4.161,4.161,0,0,1-2.382.182,26.118,26.118,0,0,1-3.98-.875,2.88,2.88,0,0,1-2.321-2.977,44.24,44.24,0,0,1-.273-7.455c.213-12.055,0-24.121-.522-36.17a41.224,41.224,0,0,0-3.548-14.041,73.685,73.685,0,0,0-3.457-6.683c-2.71-4.958-5.1-10.451-4.484-16.071.067-.608.286-1.331.887-1.428a1.288,1.288,0,0,1,.687.115,30.863,30.863,0,0,1,3.615,1.993A13.645,13.645,0,0,0,291.643,631.243Z" transform="translate(-116.66 -299.256)"/><path class="o" d="M257.548,609.156a3.939,3.939,0,0,0-5.474.62,29.16,29.16,0,0,0-2.844,2.491,15.153,15.153,0,0,0-3.378,15A29.537,29.537,0,0,0,250,634.62l3.281,4.715c5.007,7.188,10.013,14.375,15.257,21.393a.814.814,0,0,0,.571.772c.188.049.425.043.541.2a.571.571,0,0,1,.067.322,4.649,4.649,0,0,1-.292,1.519.723.723,0,0,0-.061.523c.17.395.887.17,1.118.541.152.243-.036.559-.237.766s-.45.437-.413.723.535.608.516.96c0,.207-.182.365-.31.529a1.355,1.355,0,0,0,.164,1.726c.346,3.427-1.519,6.683-1.89,10.1-.608,5.4,1.853,10.663,2.151,16.077a4.162,4.162,0,0,0,.34,1.774c.5.936,1.823,1.5,1.756,2.564a10.276,10.276,0,0,1-.371,1.288,9.788,9.788,0,0,0,.2,1.823c.012.608-.529,1.355-1.1,1.112q.644,2.151,1.148,4.338l11.483.948a10.189,10.189,0,0,0-.1-3.1c-.237-1.112-.735-2.145-1-3.245a3.84,3.84,0,0,1,.45-3.251A1.27,1.27,0,0,1,282,698.7a5.048,5.048,0,0,1,.03-1.786c.3-3-.954-5.948-.917-8.956.036-2.37.869-4.648,1.288-6.975.9-4.982-.036-10.384,2.181-14.935,1.343-2.74,3.2-5.778,1.7-8.433-.741-1.312-2.054-2.212-2.91-3.451a14.042,14.042,0,0,1-1.555-3.761c-1.768-5.468-4.63-10.548-7.139-15.749a16.4,16.4,0,0,1-1.537-4.138,21.692,21.692,0,0,1-.194-3.822,56.331,56.331,0,0,0-.419-6.859,6.525,6.525,0,0,0-.832-2.838,6.349,6.349,0,0,0-1.823-1.634C266.1,612.778,261.619,611.3,257.548,609.156Z" transform="translate(-102.937 -291.824)"/><path class="y" d="M287.448,787.445a8.233,8.233,0,0,0,3.433.407c.085-.948,1.355-1.16,2.3-1.112a2.635,2.635,0,0,1,1.318.3c.237.152.419.377.656.529a2.746,2.746,0,0,0,1.343.346l4.928.413a14.785,14.785,0,0,0,6.556-.425,2.2,2.2,0,0,0,1.045-.7c.559-.8,0-1.944-.772-2.527s-1.768-.851-2.54-1.446c-1.719-1.306-1.95-3.743-2.862-5.7A16.448,16.448,0,0,0,300.5,774.1a13.122,13.122,0,0,0-2.333-2.382c-1.975-1.434-4.253-1.4-6.574-1.61-1.647-.146-3.19-.237-4.362,1.215-1.458,1.823-.875,5.468-.79,7.6a55.055,55.055,0,0,0,1.009,8.518Z" transform="translate(-119.075 -355.279)"/><circle class="x" cx="11.374" cy="11.374" r="11.374" transform="translate(207.896 274.698)"/><path class="x" d="M340.119,562.407c-1.628,1.4-3.968,1.507-6.106,1.726a38.35,38.35,0,0,0-13.142,3.8,4.738,4.738,0,0,0-1.519,1.045,4.289,4.289,0,0,0-.772,1.628,10.638,10.638,0,0,0-.431,3.955,11.271,11.271,0,0,0,1.1,3.718,20.051,20.051,0,0,0,7.048,8.038,5.164,5.164,0,0,0,1.786.857c1.495.31,2.941-.553,4.417-.942a7.218,7.218,0,0,1,4.077.128c1.215.413,2.546,1.167,3.749.662a3.846,3.846,0,0,0,1.7-1.932,65.742,65.742,0,0,0,3.1-6.768,26.053,26.053,0,0,1,1.124-2.649c1.318-2.509,3.6-4.448,4.733-7.054a1.549,1.549,0,0,0,.109-1.324,1.823,1.823,0,0,0-.839-.638,19.934,19.934,0,0,1-4.545-3.567c-.747-.717-2.12-2.655-3.2-2.825C341.3,560.062,340.939,561.7,340.119,562.407Z" transform="translate(-131.578 -272.957)"/><path class="b" d="M319.038,590.568a6.973,6.973,0,0,1-4.3.049,49.1,49.1,0,0,1-10.815-3.141,5.857,5.857,0,0,1-2.655-2.041,6.683,6.683,0,0,1-.741-2.546l-.608-4.253a24.78,24.78,0,0,1,.194-4.338,1.258,1.258,0,0,0-.249-.942,1.027,1.027,0,0,0-.747-.237c-1.707.03-2.74,1.823-3.937,3.038a7.292,7.292,0,0,1-2.43,1.628c-1.094.45-2.43.766-2.886,1.859-.182.456-.158.972-.352,1.428-.766,1.823-4.028,1.215-4.861,3.038-.237.51-.219,1.148-.608,1.549s-1.118.395-1.719.492c-2.376.389-3.524,3.129-5.553,4.423-1.707,1.094-3.907,1.069-5.748,1.92a21.84,21.84,0,0,1-3.008,1.525,14.208,14.208,0,0,1-3.463.176.905.905,0,0,0-.687.225.917.917,0,0,0-.115.753,20.937,20.937,0,0,0,12.936,16.21,4.324,4.324,0,0,1,1.106.535c1.033.772,1.215,2.43,2.388,2.977a2.43,2.43,0,0,0,2.485-.535,22.293,22.293,0,0,0,1.823-1.981,7.139,7.139,0,0,1,4-2.108c1.41-.225,2.983-.061,4.126-.93a12.785,12.785,0,0,0,1.3-1.385,8.166,8.166,0,0,1,2.947-1.762,30.125,30.125,0,0,1,9.375-2.06c3-.164,6.076.109,8.907-.863a5.37,5.37,0,0,0,1.987-1.124,5.973,5.973,0,0,0,1.325-2.3,17.62,17.62,0,0,0,.583-9.278Z" transform="translate(-110.23 -278.005)"/><path class="b" d="M326.555,574.089c.838-.079,1.683,0,2.528,0,.99,0,1.969-.243,2.959-.249a7.358,7.358,0,0,1,6.939,5.28,1.367,1.367,0,0,1,.043.747.529.529,0,0,1-.571.389,12.594,12.594,0,0,0-1.282-2.558,7.188,7.188,0,0,0-3.816-2.661,9.879,9.879,0,0,0-4.691-.17c-.65.122-1.282.292-1.914.468l-3.038.838c-.559.152-1.124.3-1.665.5-.419.158-1.136.735-1.549.759-.559,0-.109-.486.14-.814a4.041,4.041,0,0,1,1.987-1.446A17.213,17.213,0,0,1,326.555,574.089Z" transform="translate(-132.408 -278.29)"/><path class="x" d="M338.744,610.993c.735,2.357,1.47,4.721,2.394,7.012a59.3,59.3,0,0,0,6.2,11.307,82.048,82.048,0,0,0,5.128,6.72c2.278,2.692,4.824,5.4,5.638,8.834a45.276,45.276,0,0,1,.5,6.076c.194,2.011.857,4.18,2.5,5.4a9.32,9.32,0,0,0,4.119,1.355c1.027.164,2.315.219,2.856-.674a2.7,2.7,0,0,0,.286-1.179l.243-2.971c.055-.644.286-1.464.924-1.495s.972.826,1.519,1.215a1.646,1.646,0,0,0,2.224-.772,3.779,3.779,0,0,0,.061-2.613,12.413,12.413,0,0,0-6.361-7.9,18.545,18.545,0,0,1-3.1-1.61,10.519,10.519,0,0,1-2.43-3.081c-5.645-9.278-11.313-18.61-15.287-28.721a21.424,21.424,0,0,1-1.58-5.657,37.182,37.182,0,0,1,.249-5.979,34.025,34.025,0,0,0-.984-10.651,8.379,8.379,0,0,0-1.021-2.588c-1.634-2.491-5.468-2.856-7.9-1.142a8.148,8.148,0,0,0-3.153,5.754c-.176,2.017.99,4.107,1.574,5.985Q336.034,602.317,338.744,610.993Z" transform="translate(-136.929 -281.029)"/><path class="o" d="M373.259,538.721c.091-.948-.759-1.823-1.726-2.43a22.856,22.856,0,0,1-2.922-1.786c-.863-.747-1.337-1.719-2.2-2.467a9.775,9.775,0,0,0-3.281-1.634,24.983,24.983,0,0,0-7.85-1.4,13.623,13.623,0,0,0-7.5,1.987A4.443,4.443,0,0,0,346.5,532.2a5.214,5.214,0,0,0-.608,1.883,37.174,37.174,0,0,1-1.963,5.96c-.845,2.145-1.744,4.369-3.731,6.027-2.127,1.768-5.377,2.789-6.781,4.928a1.58,1.58,0,0,0-.31,1.379c.2.541.845.911,1.44,1.252,3.451,1.981,6.428,4.551,7.959,7.619a8.842,8.842,0,0,1-.693,9.509c-.8,1.045-1.908,2.285-1.124,3.336,1.215,1.6,5.28.68,6.228,2.37a3.447,3.447,0,0,1,.122,1.744c0,1.774,1.707,3.348,3.779,4.168a21.278,21.278,0,0,0,6.8,1.118,5.942,5.942,0,0,0,.17-4.405,1.774,1.774,0,0,1-.176-1,2.43,2.43,0,0,1,.784-.96c2.491-2.357,1.962-5.821.468-8.622s-3.828-5.359-4.7-8.306a4.284,4.284,0,0,1,.729-4.326,14.615,14.615,0,0,1,2.145-1.562,8.1,8.1,0,0,0,3-3.767c.7-1.938.608-4.253,2.637-5.559,1.95-1.215,4.691-.863,6.848-1.7A7.327,7.327,0,0,0,373.259,538.721Z" transform="translate(-137.444 -260.694)"/><path class="z" d="M577.255,676.642c-9.266-3.834-11.988-6.6-11.988-12.152,0-4.253,1.871-9.162,10.074-9.162a23.131,23.131,0,0,1,12.808,3.646l2.667-7.054a28.287,28.287,0,0,0-13.847-3.731V637.86H571.58v10.754c-9.8,1.6-15.475,8.306-15.475,17.146,0,9.266,5.468,14.169,16.356,18.428,7.886,3.214,12.012,6.835,12.012,12.693,0,6.076-5.11,10.438-12.674,10.438-5.96,0-12.717-2.023-16.551-4.581l-2.558,7.133c3.731,2.667,10.122,4.581,16.3,4.691v10.754h9.168V714.24c10.937-1.823,16.824-9.721,16.824-18.106C594.978,686.655,588.228,681.114,577.255,676.642Z" transform="translate(-223.629 -303.412)"/><path class="b" d="M569.026,721.328V710.574c-6.173-.109-12.565-2.023-16.3-4.691l2.558-7.133c3.834,2.558,10.59,4.581,16.551,4.581,7.564,0,12.65-4.363,12.65-10.438,0-5.857-4.15-9.478-12.036-12.674-10.864-4.253-16.356-9.162-16.356-18.428,0-8.84,5.675-15.548,15.475-17.146V633.89h5.389v10.329a28.353,28.353,0,0,1,13.847,3.731l-2.667,7.024a23.131,23.131,0,0,0-12.808-3.646c-8.2,0-10.074,4.9-10.074,9.162,0,5.535,2.722,8.306,11.988,12.152,10.973,4.472,17.723,10.013,17.723,19.491,0,8.415-5.857,16.3-16.824,18.106v11.088Z" transform="translate(-223.644 -301.854)"/></g></svg>